<svg xmlns="http://www.w3.org/2000/svg" viewBox="0 0 1980 871" width="300" height="132">
  <style>
    tspan { white-space:pre }
    .shp0 { fill: white }
  </style>
  <path id="Path 0" fill-rule="evenodd" class="shp0"
        d="M804.25 0.01C808.64 0 812.28 0.61 814.66 1.75C816.67 2.71 819.59 4.96 821.16 6.75C822.72 8.54 824.5 11.91 825.1 14.25C825.91 17.35 825.91 19.92 825.1 23.75C824.24 27.88 823.09 29.86 819.75 33.03C816.65 35.97 814.15 37.34 810.5 38.09C807.01 38.81 803.68 38.79 799.5 38.03C796.2 37.43 791.59 35.83 789.25 34.47C786.91 33.11 784.01 30.54 782.81 28.75C781.61 26.96 780.42 23.7 780.18 21.5C779.93 19.3 780.01 16.26 780.36 14.75C780.71 13.24 782.46 10.35 784.25 8.34C786.04 6.32 789.75 3.63 792.5 2.35C796.17 0.64 799.3 0.02 804.25 0.01ZM802.78 18.45C802.88 20.68 803.54 23.33 804.23 24.35C804.99 25.45 806.71 26.2 808.5 26.2C810.48 26.21 812.11 25.41 813.29 23.85C814.28 22.56 815.07 20.38 815.05 19C815.03 17.63 814.34 15.49 813.51 14.25C812.45 12.68 811.01 12 808.7 12C806.88 12 804.77 12.54 804 13.2C803.16 13.92 802.67 16.01 802.78 18.45ZM1488.25 0.09C1492.77 0.03 1496.21 0.58 1498.67 1.75C1500.69 2.71 1503.6 5.08 1505.14 7C1506.68 8.93 1508.43 12.52 1509.01 15C1509.85 18.53 1509.75 20.58 1508.59 24.5C1507.68 27.53 1505.8 30.74 1503.8 32.63C1501.98 34.35 1499.38 36.34 1498 37.05C1496.63 37.75 1492.35 38.34 1488.5 38.35C1483.2 38.36 1480.19 37.78 1476.1 35.93C1473.12 34.6 1469.41 32.04 1467.85 30.25C1466.28 28.46 1464.55 25.2 1464 23C1463.45 20.8 1463.28 17.76 1463.63 16.25C1463.97 14.74 1465.05 12.15 1466.02 10.5C1467 8.85 1469.75 6.19 1472.15 4.59C1474.54 2.98 1477.63 1.33 1479 0.92C1480.38 0.51 1484.54 0.13 1488.25 0.09ZM1485.86 18.97C1485.89 20.36 1486.72 22.56 1487.71 23.85C1488.89 25.4 1490.52 26.21 1492.5 26.21C1494.48 26.21 1496.11 25.4 1497.29 23.85C1498.28 22.56 1499.07 20.38 1499.05 19C1499.03 17.63 1498.34 15.49 1497.51 14.25C1496.43 12.64 1495.01 12 1492.55 12C1490.14 12 1488.6 12.67 1487.45 14.22C1486.55 15.44 1485.83 17.58 1485.86 18.97ZM473.5 97.43C476.25 97.61 479.96 98.48 481.75 99.38C483.54 100.27 486 102.46 487.22 104.25C488.73 106.46 489.56 109.41 489.82 113.5C490.08 117.75 489.59 121.25 488.14 125.5C487.01 128.8 484.71 134.09 483.04 137.25C481.37 140.41 477.23 146.94 473.83 151.75C470.35 156.7 461.34 166.79 453.08 175C445.06 182.97 434.6 192.43 421.17 202.5L419.11 211C417.98 215.68 416.56 221.75 415.95 224.5C415.35 227.25 414.18 233.1 413.37 237.5C412.56 241.9 411.21 249.55 410.39 254.5C409.56 259.45 408.23 268.23 407.44 274C406.64 279.77 405.08 292.15 403.98 301.5C402.88 310.85 401.33 325.48 400.54 334C399.75 342.52 398.86 352.65 398.55 356.5C398.24 360.35 398.27 362.82 398.62 362C398.96 361.18 403.08 351.5 407.76 340.5C412.45 329.5 418.06 316.68 420.23 312C422.4 307.32 425.09 301.48 426.21 299C427.32 296.52 432.84 285.27 438.48 274C444.11 262.73 451.1 249.22 454 244C456.9 238.78 461.62 230.45 464.49 225.5C467.36 220.55 472.3 212.22 475.48 207C478.65 201.78 484.44 192.78 488.33 187C492.23 181.22 498.1 172.9 501.39 168.5C504.67 164.1 509.62 157.8 512.39 154.5C515.16 151.2 521.72 144.07 526.96 138.67C532.21 133.26 540.55 125.55 545.5 121.53C550.45 117.51 557.65 112.31 561.5 109.97C565.35 107.63 570.52 104.84 573 103.76C575.48 102.68 579.98 101 583 100.01C586.02 99.02 591.65 97.89 595.5 97.51C599.5 97.11 605.93 97.29 610.5 97.94C614.9 98.56 620.52 99.74 623 100.56C625.48 101.37 629.98 103.25 633 104.73C636.05 106.22 641.44 110.33 645.1 113.96C650.06 118.87 652.72 122.61 655.78 129C658.32 134.31 660.44 140.69 661.42 146C662.28 150.68 662.99 157.54 662.99 161.25C663 164.96 662.3 172.16 661.44 177.25C660.59 182.34 659.69 187.29 659.44 188.25C659.12 189.53 661.36 188.59 667.75 184.79C672.56 181.93 681.96 176.42 688.62 172.54C700.45 165.67 700.88 165.29 706.52 157C709.7 152.32 715.49 144.4 719.4 139.39C723.3 134.38 729.99 126.17 734.25 121.14C738.51 116.11 744.59 109.93 747.75 107.4C750.91 104.88 755.75 101.74 758.5 100.44C761.25 99.14 765.98 97.79 769 97.43C772.02 97.08 776.3 97.26 778.5 97.85C780.7 98.43 783.46 99.94 784.63 101.2C785.8 102.47 787.29 105.08 787.95 107C788.91 109.83 788.85 111.56 787.65 116C786.58 119.92 784.77 123.05 781.33 126.89C778.67 129.85 773.8 134.42 770.5 137.03C767.2 139.65 758.42 145.45 751 149.92C743.58 154.39 734.72 159.5 731.33 161.27C725.43 164.35 724.9 164.96 719.61 174.5C716.57 180 712.09 188.78 709.67 194C707.25 199.22 703.9 207.78 702.24 213C700.58 218.22 698.44 226.1 697.48 230.5C696.41 235.43 695.73 242.91 695.72 250C695.7 257.56 696.28 263.9 697.4 268.5C698.35 272.35 700.15 277.75 701.42 280.5C702.69 283.25 705.02 287.04 706.61 288.92C708.2 290.8 711.75 293.39 714.5 294.66C717.88 296.23 721.36 296.98 725.25 296.99C728.78 297 734 296 738.75 294.43C743.01 293.01 748.98 290.47 752 288.77C755.02 287.07 760.42 283.65 764 281.17C767.58 278.68 772.08 275.32 774 273.69C775.92 272.07 781.1 267.3 785.5 263.1C789.9 258.9 796.66 251.87 800.52 247.48C804.38 243.09 810.27 235.9 813.6 231.5C816.93 227.1 822.52 219.22 826.01 214C829.5 208.78 835.48 198.43 839.3 191C843.11 183.57 849.05 173.22 852.49 168C855.93 162.78 862.29 154.48 866.63 149.56C870.96 144.64 878.34 137.22 883.04 133.06C887.74 128.9 895.39 122.96 900.04 119.85C904.69 116.75 912.55 112.18 917.5 109.71C922.45 107.24 930.77 103.75 936 101.97C944.05 99.22 947.33 98.65 957.5 98.27C968.04 97.87 970.29 98.08 976 100.04C979.58 101.27 984.3 103.5 986.5 104.99C988.7 106.49 992.67 110.14 995.31 113.11C997.96 116.07 1001.09 120.97 1002.26 124C1003.83 128.03 1004.41 131.77 1004.44 138C1004.47 143.54 1003.88 148.24 1002.76 151.5C1001.81 154.25 999.68 158.64 998.02 161.25C995.51 165.19 994.49 166 992 166C990.01 166 988.49 165.24 987.47 163.75C986.04 161.65 986.19 160.99 989.68 154C993.04 147.25 993.41 145.7 993.45 138.5C993.47 132.1 993.03 129.65 991.24 126.25C990.01 123.91 987.54 120.39 985.75 118.42C983.96 116.45 980.25 113.74 977.5 112.41C973.51 110.47 970.94 109.98 964.75 109.99C959.14 110 954.86 110.71 949.25 112.56C944.99 113.97 938.13 116.96 934 119.21C929.88 121.45 922.24 126.48 917.04 130.39C911.83 134.3 903.51 141.59 898.54 146.58C893.57 151.57 886.46 159.9 882.74 165.08C879.02 170.26 872.87 180.8 869.07 188.5C865.28 196.2 861.04 206.1 859.67 210.5C858.29 214.9 856.45 222.66 855.58 227.75C854.71 232.84 853.99 239.59 853.99 242.75C853.98 245.91 854.7 252.1 855.58 256.5C856.47 260.9 858.86 268.1 860.88 272.5C862.94 276.97 866.59 282.71 869.15 285.5C871.68 288.25 876.61 292.07 886.5 297.5L899.5 297.43C911.53 297.37 913.21 297.12 922 294.07C927.23 292.25 935.55 288.74 940.5 286.27C945.45 283.8 952.2 280.18 955.5 278.23C958.8 276.27 966 271.73 971.5 268.14C977 264.55 986.9 257.56 993.5 252.62C1000.1 247.68 1011.13 238.89 1018 233.09C1024.88 227.28 1035.88 217.57 1042.46 211.52C1049.04 205.46 1060.07 195.04 1079.5 176.24L1080.82 168.37C1081.54 164.04 1083.04 156.45 1084.15 151.5C1085.26 146.55 1087.46 138.68 1089.05 134C1090.63 129.32 1093.41 122.71 1095.22 119.29C1097.02 115.88 1100.3 110.95 1102.5 108.34C1104.7 105.73 1108.53 102.33 1111 100.78C1114.7 98.47 1116.62 97.97 1121.75 97.99C1126.94 98 1128.51 98.42 1131 100.5C1132.83 102.03 1134.42 104.65 1135.09 107.25C1135.97 110.64 1135.86 112.81 1134.55 118C1133.65 121.58 1131.1 128.1 1128.88 132.5C1126.66 136.9 1123.2 142.75 1121.2 145.5C1119.2 148.25 1114.59 154.1 1104.32 166.5L1102.1 182C1100.88 190.53 1099.67 198.4 1099.41 199.5C1099.12 200.73 1102.9 197.84 1109.22 192C1114.87 186.78 1119.72 182.25 1120 181.95C1120.28 181.65 1124.78 177.8 1130 173.39C1135.22 168.99 1142.2 163.34 1145.5 160.83C1148.8 158.33 1157.13 152.31 1164 147.46C1170.88 142.6 1180.55 135.85 1185.5 132.45C1190.45 129.05 1198.78 123.68 1204 120.51C1209.22 117.35 1216.88 113.08 1221 111.03C1225.13 108.98 1231.65 106.13 1235.5 104.7C1239.35 103.27 1245.42 101.37 1249 100.48C1252.58 99.59 1260.45 98.41 1266.5 97.87C1273.52 97.24 1279.67 97.22 1283.5 97.83C1286.8 98.35 1291.53 99.71 1294 100.84C1296.47 101.98 1300.68 104.84 1303.35 107.21C1306.15 109.69 1309.31 113.82 1310.85 117C1313.16 121.8 1313.49 123.7 1313.44 132C1313.4 139.68 1312.86 143.03 1310.62 149.5C1309.1 153.9 1305.37 162.45 1302.32 168.5C1299.28 174.55 1289.35 192.32 1280.25 208C1271.15 223.68 1260.88 242.13 1257.44 249C1254 255.88 1250.43 263.75 1249.51 266.5C1248.6 269.25 1247.59 274.43 1247.28 278C1246.96 281.75 1247.2 286.09 1247.86 288.25C1248.53 290.47 1250.12 292.69 1251.75 293.68C1253.84 294.97 1255.93 295.24 1260.5 294.84C1264.74 294.47 1268.55 293.24 1273.5 290.65C1277.35 288.63 1283.2 284.98 1286.5 282.53C1289.8 280.08 1296.55 274.35 1301.5 269.79C1306.45 265.23 1315.1 256.55 1320.71 250.5C1326.33 244.45 1334.45 235.22 1338.75 230C1343.06 224.78 1350.61 215.34 1355.54 209.02C1362.2 200.49 1366.51 193.56 1372.31 182.02C1376.61 173.49 1383.53 161.32 1387.71 155C1391.88 148.68 1397.78 140.35 1400.82 136.5C1403.86 132.65 1410.43 125.44 1415.42 120.47C1420.41 115.51 1427.2 109.38 1430.5 106.86C1433.8 104.34 1438.3 101.38 1440.5 100.29C1442.7 99.19 1446.08 98 1448 97.65C1449.92 97.29 1453.19 97.45 1455.25 98C1457.31 98.55 1460.72 100.69 1462.83 102.75C1465.42 105.29 1466.9 107.79 1467.4 110.5C1467.82 112.71 1467.69 116.29 1467.13 118.5C1466.57 120.7 1464.35 124.53 1462.2 127C1460.04 129.47 1453.61 134.63 1447.89 138.46C1442.18 142.29 1433 148.78 1427.5 152.88C1422 156.98 1413.71 163.52 1409.07 167.42C1400.8 174.36 1400.52 174.75 1394.43 187.5C1391.02 194.65 1386.85 204.55 1385.18 209.5C1383.51 214.45 1381.42 221.43 1380.53 225C1379.64 228.57 1378.43 236.22 1377.83 242C1377.04 249.62 1377.04 255.1 1377.85 262C1378.46 267.23 1380.09 274.43 1381.47 278C1382.85 281.57 1385.45 286.26 1387.24 288.42C1389.03 290.58 1392.3 293.46 1394.5 294.82C1397.15 296.46 1400.53 297.47 1404.5 297.8C1407.8 298.07 1412.75 297.74 1415.5 297.07C1418.25 296.39 1423.65 294.38 1427.5 292.6C1431.35 290.82 1437.86 287.15 1441.97 284.43C1446.08 281.72 1453.73 275.65 1458.97 270.94C1464.21 266.23 1472.71 257.68 1477.85 251.94C1482.99 246.2 1490 237.9 1493.43 233.5C1496.86 229.1 1502.36 221.45 1505.65 216.5C1508.94 211.55 1512.69 204.57 1513.98 201C1515.28 197.43 1517.9 191.35 1519.81 187.5C1521.72 183.65 1525.8 176.45 1528.87 171.5C1531.94 166.55 1537.65 158.68 1541.56 154C1545.47 149.32 1552.71 141.68 1557.64 137C1562.58 132.32 1570.87 125.48 1576.06 121.78C1581.25 118.09 1590 112.82 1595.5 110.08C1601 107.34 1609.78 103.68 1615 101.95C1622.28 99.54 1626.95 98.69 1635 98.27C1641.23 97.95 1647.63 98.19 1650.75 98.87C1653.64 99.49 1658.52 101.24 1661.6 102.75C1664.68 104.26 1669.43 107.75 1672.15 110.5C1674.87 113.25 1678.19 117.75 1679.52 120.5C1680.86 123.25 1682.48 128.65 1683.13 132.5C1684.13 138.42 1684.06 140.66 1682.66 147C1681.75 151.16 1679.56 156.95 1677.75 160C1675.09 164.5 1673.95 165.55 1671.5 165.78C1669.65 165.96 1667.82 165.38 1666.72 164.28C1665.74 163.3 1664.95 161.94 1664.97 161.25C1664.99 160.56 1666.07 158.31 1667.37 156.25C1668.68 154.19 1670.48 150.03 1671.38 147C1672.28 143.97 1673.01 139.7 1673 137.5C1672.98 135.3 1672.2 131.03 1671.25 128C1670.05 124.18 1668.14 121.12 1665.01 117.97C1661.87 114.82 1658.83 112.92 1655 111.7C1651.97 110.74 1646.8 109.96 1643.5 109.96C1640.2 109.96 1634.35 110.92 1630.5 112.09C1626.65 113.26 1620.8 115.55 1617.5 117.19C1614.2 118.82 1608.8 121.98 1605.5 124.22C1602.2 126.45 1597.03 130.34 1594 132.87C1590.97 135.4 1585.85 139.95 1582.6 142.98C1579.36 146.02 1573.32 152.55 1569.19 157.5C1565.06 162.45 1558.97 170.55 1555.66 175.5C1552.34 180.45 1548.19 187.65 1546.43 191.5C1544.67 195.35 1542 202.1 1540.5 206.5C1539 210.9 1536.93 219.22 1535.9 225C1534.87 230.78 1534.01 237.97 1534 241C1533.98 244.03 1534.7 250.1 1535.6 254.5C1536.5 258.9 1538.45 265.2 1539.95 268.5C1541.44 271.8 1545.1 277.14 1548.08 280.37C1552.13 284.75 1555.52 287.2 1561.5 290.05C1565.9 292.15 1572.2 294.35 1575.5 294.94C1578.8 295.53 1584.65 296 1588.5 295.99C1592.35 295.97 1600 295.32 1605.5 294.54C1611 293.75 1620.9 291.71 1627.5 290C1634.1 288.29 1642.88 285.73 1647 284.31C1651.13 282.89 1659.67 279.74 1666 277.31C1672.33 274.89 1686.5 269.5 1697.5 265.35C1708.5 261.2 1722 256.26 1727.5 254.36C1733 252.47 1742 249.43 1747.5 247.59C1753 245.76 1762 242.89 1767.5 241.2C1773 239.52 1783.35 236.55 1790.5 234.6C1797.65 232.66 1811.38 229.54 1821 227.66C1830.63 225.79 1841.88 223.75 1846 223.13C1850.13 222.52 1861.38 221.33 1871 220.5C1880.63 219.67 1892.44 219 1897.25 219C1902.06 219 1913.31 219.67 1922.25 220.49C1931.19 221.3 1940.97 222.42 1944 222.98C1947.03 223.53 1951.97 224.44 1955 224.99C1958.03 225.54 1963.65 226.69 1967.5 227.54C1971.35 228.4 1975.63 229.64 1977 230.31C1978.68 231.12 1979.61 232.49 1979.83 234.51C1980.03 236.4 1979.53 238.05 1978.45 239C1977 240.28 1975.83 240.32 1970.62 239.3C1967.26 238.65 1959.1 237 1952.5 235.65C1945.9 234.29 1932.85 232.47 1923.5 231.59C1914.15 230.72 1902.11 230 1896.75 230C1891.39 230 1879.46 230.68 1870.25 231.51C1861.04 232.34 1849 233.73 1843.5 234.59C1838 235.46 1828.1 237.27 1821.5 238.62C1814.9 239.97 1805 242.21 1799.5 243.59C1794 244.97 1782.97 248.08 1775 250.5C1767.03 252.93 1753.53 257.37 1745 260.38C1736.47 263.4 1724.1 268.09 1717.5 270.81C1710.9 273.53 1698.97 278.55 1691 281.97C1683.03 285.39 1671.55 290.22 1665.5 292.7C1659.45 295.18 1648.42 299.46 1641 302.22C1633.58 304.97 1625.47 307.81 1623 308.53C1620.53 309.25 1615.13 310.81 1611 312C1606.88 313.18 1598.78 314.79 1593 315.56C1587.22 316.33 1578.11 316.97 1572.75 316.98C1567.39 316.99 1559.51 316.32 1555.25 315.48C1550.99 314.65 1543.9 312.22 1539.5 310.09C1533.34 307.11 1530.01 304.64 1525 299.33C1521.4 295.51 1517.06 289.55 1515.26 285.97C1513.48 282.41 1510.92 275 1509.57 269.5C1508.22 264 1506.75 254.25 1505.5 236.15L1497.5 246.25C1493.1 251.81 1483.88 262.01 1477 268.93C1470.13 275.84 1460.67 284.57 1456 288.32C1451.33 292.08 1443.22 298.01 1438 301.52C1432.78 305.02 1425.35 309.31 1421.5 311.05C1417.65 312.79 1411.13 314.86 1407 315.65C1401.17 316.76 1398.06 316.84 1393 316.02C1389.42 315.44 1383.13 313.34 1379 311.36C1374.29 309.1 1369.61 305.85 1366.41 302.63C1363.61 299.81 1360.05 295.02 1358.5 292C1356.95 288.98 1354.84 283.8 1353.8 280.5C1352.66 276.88 1351.67 269.93 1351.32 263C1350.97 256.13 1351.21 248.28 1351.91 243.5C1352.55 239.1 1353.34 233.93 1354.25 228.5L1351.05 232.5C1349.28 234.7 1346.41 238.27 1344.67 240.44C1342.93 242.61 1338.37 248.24 1334.55 252.94C1330.72 257.65 1324.65 264.88 1321.06 269C1317.46 273.13 1311.19 280.1 1307.13 284.5C1303.07 288.9 1297.22 294.66 1294.12 297.31C1291.03 299.95 1285.24 304.12 1281.25 306.56C1277.26 309 1270.51 312.19 1266.25 313.65C1260.49 315.63 1256.45 316.32 1250.5 316.35C1244.38 316.39 1241.33 315.89 1237.5 314.21C1234.75 313 1230.83 310.32 1228.8 308.26C1226.76 306.19 1224.08 302.25 1222.84 299.5C1220.93 295.29 1220.58 292.83 1220.62 284C1220.66 275.44 1221.15 272.02 1223.3 265.5C1224.75 261.1 1229.27 250.75 1233.35 242.5C1237.42 234.25 1247.02 216.7 1254.67 203.5C1262.32 190.3 1271.34 174.1 1274.72 167.5C1278.09 160.9 1282.29 151.22 1284.05 146C1286.23 139.54 1287.29 134.42 1287.37 130C1287.46 125.12 1286.99 122.68 1285.49 120.21C1284.4 118.4 1281.7 116.05 1279.5 114.98C1276.58 113.55 1273.34 113.02 1267.5 113C1261.94 112.97 1256.91 113.7 1251 115.4C1246.33 116.73 1238 119.75 1232.5 122.09C1227 124.43 1218.22 128.59 1213 131.34C1207.78 134.09 1199.45 138.8 1194.5 141.8C1189.55 144.8 1181.9 149.74 1177.5 152.77C1173.1 155.81 1164.78 161.9 1159 166.3C1153.22 170.71 1143.34 178.63 1137.04 183.91C1130.74 189.18 1120.61 198.06 1114.54 203.63C1108.47 209.2 1102.05 215.28 1100.29 217.13C1097.23 220.33 1096.96 221.26 1094.97 235.5C1093.82 243.75 1092 254.78 1090.95 260C1089.89 265.23 1088.54 271.3 1087.94 273.5C1087.35 275.7 1085.49 281.55 1083.8 286.5C1082.11 291.45 1079.89 297.19 1078.87 299.25C1077.84 301.31 1075.54 304.63 1073.75 306.63C1071.96 308.62 1068.47 311.43 1066 312.88C1062.1 315.15 1060.36 315.5 1053 315.5C1045.65 315.5 1043.97 315.16 1040.57 313C1038.41 311.63 1035.48 308.96 1034.07 307.07C1031.84 304.1 1031.5 302.66 1031.5 296.07C1031.51 288.93 1031.78 287.99 1036.34 279.5C1039 274.55 1043.58 266.9 1046.51 262.5C1049.45 258.1 1055.84 249.78 1069.59 233.5L1071.4 223.5C1072.4 218 1073.84 210.35 1074.61 206.5C1075.37 202.65 1076.01 198.6 1076.03 197.5C1076.04 196.07 1072.28 199.21 1062.78 208.53C1055.47 215.7 1044.33 226.08 1038 231.6C1031.67 237.12 1022.23 244.98 1017 249.08C1011.77 253.18 1003.45 259.51 998.5 263.15C993.55 266.8 982.98 274.02 975 279.21C967.02 284.4 956.23 291.15 951 294.22C945.77 297.29 937.67 301.67 933 303.95C928.33 306.23 920.45 309.45 915.5 311.1C910.55 312.76 902 314.81 896.5 315.66C888.17 316.95 885.17 317.01 878.5 316C874.1 315.34 868.25 313.9 865.5 312.8C862.75 311.7 858.48 309.38 856.02 307.65C853.55 305.92 850.01 302.93 848.16 301C846.3 299.07 843.52 295.7 841.99 293.5C840.46 291.3 837.96 287.02 836.45 284C834.93 280.98 832.9 276.02 831.94 273C830.98 269.98 829.65 265.02 828.99 262C828.32 258.98 827.49 251.37 826.5 233.69L823 238.18C821.08 240.65 817.25 245.33 814.5 248.57C811.75 251.81 807.02 257.13 804 260.38C800.98 263.64 794.52 270.17 789.65 274.9C784.78 279.63 776.68 286.78 771.65 290.8C766.62 294.81 758.45 300.49 753.5 303.42C748.55 306.35 741.35 309.98 737.5 311.48C733.65 312.98 728.02 314.66 725 315.22C721.98 315.77 716.13 315.96 712 315.65C706.56 315.23 702.85 314.27 698.5 312.13C694.77 310.3 690.42 306.97 687 303.32C683.7 299.8 679.95 294.26 677.62 289.47C675.49 285.09 672.89 278.13 671.84 274C670.79 269.88 669.65 263.13 669.32 259C668.99 254.88 669.26 247.68 669.91 243C670.57 238.32 672.05 230.68 673.21 226C674.37 221.32 677.21 212.78 679.52 207C681.83 201.22 685.13 193.69 690 184L653.5 205.94L650.03 213.22C648.13 217.23 643.89 225 640.62 230.5C637.35 236 631.31 245 627.19 250.5C623.08 256 613.6 266.58 606.11 274C598 282.04 589.06 289.81 584 293.19C579.33 296.32 571.67 300.86 567 303.28C562.33 305.7 554.67 309.06 550 310.74C545.33 312.42 537.23 314.57 532 315.53C525.55 316.7 519.61 317.1 513.5 316.78C508.55 316.52 502.48 315.56 500 314.65C497.52 313.75 493.8 311.76 491.71 310.25C489.23 308.44 487.42 306.04 486.46 303.25C485.19 299.55 485.18 298.39 486.43 294.25C487.22 291.64 489.88 286.8 492.35 283.5C494.82 280.2 498.79 275.89 501.17 273.91C503.55 271.94 508.65 268.15 512.5 265.5C516.35 262.84 530.08 255.53 543 249.24C555.92 242.95 569.42 236.45 573 234.79C576.58 233.13 589.4 226.82 601.5 220.78C613.6 214.73 623.84 209.27 624.25 208.64C624.66 208.01 626.39 203.9 628.1 199.5C629.8 195.1 632.36 187.22 633.78 182C636.08 173.55 636.37 170.57 636.5 137.5L633.38 131C631.67 127.43 628.74 122.97 626.88 121.09C625.02 119.22 621.02 116.52 618 115.09C613.16 112.81 611.23 112.5 602 112.51C593.68 112.52 590.05 113.01 584.5 114.86C580.65 116.15 575.7 118.12 573.5 119.25C571.3 120.37 566.58 123.21 563 125.56C559.42 127.91 552.49 133.36 547.58 137.67C542.67 141.97 534.41 150.45 529.23 156.5C524.04 162.55 515.86 172.68 511.06 179C506.25 185.32 498.02 196.8 492.78 204.5C487.55 212.2 479 225.7 473.8 234.5C468.6 243.3 462.74 253.43 460.79 257C458.85 260.57 454.09 269.57 450.23 277C446.37 284.43 439.28 298.82 434.48 309C429.68 319.18 421.5 337.18 416.31 349C411.12 360.82 404.37 376.8 395.73 398.5L395.23 437.5C394.91 462.76 395.32 494.65 396.37 528C397.27 556.33 398.46 587.83 399.01 598C399.56 608.17 400.48 630.45 401.06 647.5C401.65 664.55 402.12 695.83 402.12 717C402.12 738.17 401.63 761.8 401.03 769.5C400.42 777.2 399.24 787.77 398.4 793C397.56 798.23 396.03 806.1 395 810.5C393.97 814.9 391.93 822.33 390.47 827C389.01 831.67 385.71 839.53 383.15 844.46C380.09 850.37 376.45 855.51 372.5 859.52C369.2 862.87 364.25 866.71 361.5 868.06C357.08 870.22 355.16 870.5 345 870.5C334.58 870.5 332.99 870.25 328 867.83C324.98 866.36 320.25 863.17 317.5 860.74C314.75 858.31 310.63 853.22 308.34 849.41C306.05 845.61 303.06 839.13 301.7 835C300.34 830.88 298.4 822.55 297.38 816.5C295.91 807.73 295.55 800.34 295.61 780C295.64 764.15 296.31 747.88 297.36 737C298.28 727.38 299.96 713.2 301.09 705.5C302.22 697.8 303.56 688.58 304.08 685C304.59 681.42 305.46 676.25 306 673.5C306.54 670.75 307.92 663.33 309.06 657C310.21 650.67 312.91 636.95 315.07 626.5C317.23 616.05 319.65 604.58 320.45 601C321.26 597.42 323.93 586.63 326.4 577C328.87 567.38 332.44 553.88 334.34 547C336.25 540.13 339.23 529.77 340.97 524C342.72 518.23 344.74 511.48 345.47 509C346.2 506.52 348.17 500.23 349.84 495C351.51 489.77 354.22 481.45 355.86 476.5C357.51 471.55 361.21 460.98 369.32 438.5L370.13 411C370.58 395.88 371.87 371.35 373 356.5C374.14 341.65 375.29 328.15 375.56 326.5C375.84 324.85 376.72 318.1 377.51 311.5C378.31 304.9 379.63 295 380.44 289.5C381.24 284 382.59 275.45 383.43 270.5C384.27 265.55 385.6 258.13 386.37 254C387.15 249.88 388.98 241.1 390.43 234.5C391.89 227.9 392.84 222.39 392.54 222.25C392.24 222.11 387.61 224.4 382.25 227.33C376.89 230.26 369.35 234.15 365.5 235.97C361.65 237.78 355.57 240.59 352 242.21C348.43 243.82 344.15 245.76 342.5 246.51C340.85 247.27 333.99 250.16 327.25 252.94C320.51 255.72 314.77 258 314.5 258C314.23 258 312.09 258.85 309.75 259.89C307.41 260.94 300.77 263.45 295 265.48C289.23 267.5 278.65 271.11 271.5 273.5C264.35 275.88 252.88 279.47 246 281.47C239.13 283.48 225.85 287.08 216.5 289.47C207.15 291.87 194.32 294.97 188 296.36C181.68 297.76 173.8 299.42 170.5 300.06C167.2 300.7 161.13 301.84 157 302.59C152.88 303.34 145.22 304.67 140 305.55C134.78 306.42 125.78 307.79 120 308.59C114.22 309.39 103.2 310.7 95.5 311.5C87.8 312.31 79.92 313.2 78 313.5C76.08 313.79 62.35 314.7 47.5 315.51C32.65 316.32 16.79 316.99 12.25 316.99C7.71 317 3.1 316.55 2 316C0.62 315.31 -0.01 313.99 -0.02 311.75C-0.03 309.96 0.51 307.94 1.18 307.25C2.04 306.37 6.42 306 15.95 306C23.4 306 35.35 305.56 42.5 305.01C49.65 304.46 61.13 303.56 68 303.02C74.88 302.48 86.35 301.36 93.5 300.53C100.65 299.71 111 298.37 116.5 297.56C122 296.75 130.55 295.43 135.5 294.61C140.45 293.79 147.2 292.62 150.5 292C153.8 291.38 161 289.97 166.5 288.86C172 287.76 179.43 286.2 183 285.4C186.57 284.6 192.43 283.27 196 282.45C199.57 281.63 204.07 280.53 206 280C207.93 279.47 215.57 277.42 223 275.43C230.43 273.45 241.9 270.23 248.5 268.28C255.1 266.33 265 263.24 270.5 261.42C276 259.59 284.55 256.69 289.5 254.96C294.45 253.24 303.68 249.83 310 247.38C316.32 244.94 322.4 242.53 323.5 242.02C324.6 241.51 328.43 239.89 332 238.42C335.57 236.96 341.43 234.41 345 232.77C348.57 231.13 356.68 227.19 363 224.02C369.32 220.84 378.55 215.9 383.5 213.04C388.45 210.17 393.96 206.74 395.75 205.41C397.54 204.09 398.99 202.44 398.99 201.75C398.98 201.06 399.93 197.35 401.1 193.5C402.27 189.65 405.02 181.32 407.22 175C409.41 168.68 413.02 159.22 415.22 154C417.43 148.78 420.36 142.25 421.73 139.5C423.1 136.75 426.59 130.9 429.48 126.5C432.37 122.1 437.61 115.63 441.12 112.13C444.63 108.62 450.2 104.24 453.5 102.4C456.8 100.55 461.52 98.6 464 98.07C466.48 97.54 470.75 97.25 473.5 97.43ZM755.42 126.14C751.52 130.19 746.12 136.15 743.42 139.4L738.5 145.29C748.58 139.1 753.3 136.07 755.5 134.56C757.7 133.06 762.2 129.62 765.5 126.92C768.8 124.22 772.51 120.44 773.75 118.51C774.99 116.58 775.77 114.55 775.5 114C775.23 113.45 773.95 113 772.68 113C771.4 113 768.59 114.3 766.43 115.89C764.27 117.48 759.31 122.09 755.42 126.14ZM1438.99 122.93C1437.61 124.34 1433.57 128.88 1430.02 133C1426.47 137.13 1422.87 141.35 1422.03 142.4C1420.57 144.2 1420.62 144.23 1423 143C1424.38 142.29 1430.2 138.51 1435.94 134.6C1441.69 130.7 1448.1 125.81 1450.19 123.75C1452.29 121.69 1454.4 118.99 1454.88 117.75C1455.46 116.29 1455.37 115.05 1454.63 114.21C1454.01 113.49 1452.98 112.93 1452.34 112.96C1451.7 112.98 1449 114.66 1446.34 116.68C1443.68 118.7 1440.37 121.52 1438.99 122.93ZM1115.54 123.5C1114.61 125.7 1112.76 130.88 1111.43 135C1110.1 139.13 1109.23 142.61 1109.5 142.75C1109.78 142.89 1111.97 139.96 1114.37 136.25C1116.78 132.54 1119.93 127.25 1121.38 124.5C1122.82 121.75 1124 118.26 1124 116.75C1124 115.02 1123.46 114 1122.56 114C1121.77 114 1120.24 115.24 1119.17 116.75C1118.1 118.26 1116.47 121.3 1115.54 123.5ZM450.18 131.39C448.04 134.2 444.14 140.78 441.52 146C438.89 151.22 435.41 159.1 433.77 163.5C432.14 167.9 430.06 173.79 429.15 176.58L427.5 181.67C440.49 169.91 446.84 163.57 449.99 160C453.15 156.43 457.95 150.57 460.66 147C463.37 143.43 466.8 137.91 468.29 134.75C470.17 130.77 470.92 127.69 470.75 124.75C470.51 120.67 470.36 120.49 467 120.2C464.39 119.98 462.29 120.72 458.79 123.1C456.2 124.85 452.33 128.59 450.18 131.39ZM525.24 273.25C519.61 276.96 513.89 281.46 512.53 283.25C511.17 285.04 510.03 287.4 509.99 288.5C509.95 289.78 510.93 290.92 512.71 291.67C514.24 292.31 516.74 293.1 518.25 293.42C519.76 293.74 524.71 293.34 529.25 292.54C533.79 291.74 540.2 290.05 543.5 288.79C546.8 287.52 552.2 285.03 555.5 283.24C558.8 281.46 565.33 277.13 570 273.63C574.67 270.13 581.83 263.94 585.9 259.88C589.98 255.82 596.28 248.9 599.92 244.5C603.55 240.1 607.76 234.81 609.26 232.75C610.77 230.69 611.85 228.83 611.67 228.63C611.49 228.43 594.28 236.87 573.42 247.38C552.56 257.9 530.88 269.54 525.24 273.25ZM1051.45 278.5C1049.13 282.9 1046.94 287.85 1046.58 289.5C1046.22 291.15 1046.17 293.29 1046.46 294.25C1046.76 295.21 1047.9 296.45 1049 297C1050.1 297.55 1051.74 297.66 1052.64 297.25C1053.55 296.84 1055.33 294.7 1056.61 292.5C1057.88 290.3 1059.62 286.25 1060.48 283.5C1061.34 280.75 1062.91 273.84 1063.99 268.14C1065.06 262.44 1065.8 257.58 1065.64 257.34C1065.48 257.09 1063.17 259.96 1060.5 263.7C1057.84 267.44 1053.77 274.1 1051.45 278.5ZM364.57 487.14C361.86 495.59 358.41 506.32 356.91 511C355.4 515.67 353.65 521.3 353.01 523.5C352.38 525.7 351.26 529.52 350.53 532C349.8 534.48 348.07 540.33 346.69 545C345.31 549.67 342.58 559.35 340.62 566.5C338.66 573.65 335.46 585.8 333.5 593.5C331.55 601.2 328.37 614.92 326.42 624C324.48 633.08 322.22 643.88 321.41 648C320.6 652.13 319.09 660.45 318.05 666.5C317.02 672.55 315.44 682.67 314.56 689C313.68 695.33 312.52 704.55 311.99 709.5C311.46 714.45 310.53 725.48 309.91 734C309.26 743.01 309.01 761.64 309.29 778.5C309.76 805.72 309.95 808.11 312.42 817.5C313.86 823 316.06 829.75 317.32 832.5C318.57 835.25 321.6 839.71 324.05 842.4C326.5 845.1 330.41 848.14 332.75 849.15C335.09 850.17 338.46 851.05 340.25 851.11C342.04 851.18 344.74 850.73 346.25 850.11C347.76 849.5 350.6 847.31 352.56 845.25C354.52 843.19 357.41 838.8 358.99 835.5C360.57 832.2 362.84 826.58 364.03 823C365.22 819.42 367 813.35 367.98 809.5C368.96 805.65 370.7 796.88 371.85 790C373 783.13 374.69 769.63 375.59 760C376.92 745.9 377.12 735.79 376.65 708C376.33 689.02 375.4 655.27 374.57 633C373.75 610.73 372.57 581.48 371.95 568C371.33 554.52 370.53 527.36 370.16 507.64L369.5 471.78L364.57 487.14ZM887.5 515.47C893 515.67 900.42 516.52 904 517.36C907.58 518.2 913.33 520.15 916.79 521.69C922.66 524.31 923.07 524.71 923.04 527.75C923.02 529.54 922.66 531.21 922.25 531.47C921.84 531.73 919.48 530.99 917 529.83C914.52 528.67 909.35 526.8 905.5 525.66C900.14 524.09 895.57 523.59 886 523.55C876.44 523.51 872.33 523.92 868.5 525.28C865.75 526.26 861.7 528.29 859.5 529.79C856.93 531.54 854.51 534.48 852.73 538.01C851.07 541.32 849.98 545.09 849.99 547.5C850 549.7 850.46 553.19 851.01 555.25C851.55 557.31 853.91 561.08 856.25 563.62C858.67 566.25 863.3 569.64 867 571.49C870.58 573.27 879.8 576.86 887.5 579.45C895.2 582.05 905.3 586.05 909.95 588.34C914.6 590.63 920.24 594.3 922.49 596.5C924.74 598.7 927.67 602.75 929.01 605.5C930.67 608.92 931.56 612.72 931.82 617.5C932.03 621.54 931.63 626.4 930.86 629C930.13 631.48 928.37 635.3 926.96 637.5C925.55 639.7 921.94 643.12 918.95 645.1C915.95 647.09 910.8 649.56 907.5 650.6C902.72 652.12 898.46 652.5 886.5 652.5C875.27 652.49 869.74 652.03 864.5 650.68C860.65 649.68 855.02 647.96 852 646.84C848.98 645.73 845.26 644.18 843.75 643.41C841.54 642.28 841 641.31 841 638.5C841 636.38 841.49 634.99 842.25 634.97C842.94 634.96 845.98 636.03 849 637.35C852.02 638.68 857.88 640.81 862 642.09C868.46 644.1 871.64 644.43 885 644.46C897.94 644.49 901.47 644.17 906.36 642.5C909.59 641.4 914.04 638.92 916.25 637C918.47 635.08 921.12 631.81 922.14 629.75C923.33 627.35 924 623.84 924 620C924 615.69 923.33 612.66 921.63 609.25C920.33 606.64 917.63 603.04 915.63 601.25C913.63 599.46 909.41 596.7 906.25 595.1C903.09 593.51 893.08 589.64 884 586.52C874.92 583.39 864.85 579.41 861.61 577.67C858.36 575.92 854.09 573.1 852.11 571.39C850.12 569.69 847.15 565.86 845.5 562.89C842.79 558.02 842.5 556.63 842.5 548.5C842.5 540.36 842.79 538.98 845.5 534.12C847.15 531.16 849.96 527.45 851.75 525.87C853.54 524.29 857.14 521.95 859.75 520.66C862.36 519.37 866.52 517.81 869 517.19C871.48 516.57 874.4 515.85 875.5 515.58C876.6 515.32 882 515.26 887.5 515.47ZM1364 515.48C1373.37 515.76 1377.07 516.35 1384 518.67C1388.67 520.24 1395.12 523.09 1398.32 525.01C1401.52 526.93 1406.63 530.98 1409.66 534C1412.7 537.02 1416.68 541.75 1418.5 544.5C1420.33 547.25 1423.19 552.88 1424.85 557C1426.52 561.13 1428.42 567.88 1429.07 572C1429.75 576.31 1430.01 583.54 1429.69 589C1429.33 594.99 1428.18 601.45 1426.59 606.5C1425.19 610.9 1422.35 617.41 1420.28 620.96C1418.2 624.52 1413.8 630.16 1410.5 633.49C1407.2 636.82 1401.8 641.19 1398.5 643.2C1395.2 645.21 1388.9 648.09 1384.5 649.62C1377.1 652.18 1375.34 652.38 1361 652.38C1346.66 652.38 1344.9 652.18 1337.5 649.62C1333.1 648.09 1326.8 645.21 1323.5 643.2C1320.2 641.2 1314.57 636.62 1310.99 633.03C1306.4 628.43 1303.21 623.99 1300.19 618C1297.84 613.33 1295.04 606.13 1293.97 602C1292.74 597.22 1292.02 591.06 1292 585C1291.99 579.77 1292.7 572.13 1293.59 568C1294.48 563.88 1296.93 556.9 1299.04 552.5C1301.14 548.1 1305.26 541.69 1308.18 538.26C1311.11 534.83 1315.75 530.35 1318.5 528.31C1321.25 526.27 1326.2 523.39 1329.5 521.91C1332.8 520.43 1338.2 518.51 1341.5 517.64C1344.8 516.76 1348.63 515.84 1350 515.59C1351.38 515.34 1357.67 515.29 1364 515.48ZM1338 526.87C1334.97 528 1329.8 530.66 1326.5 532.77C1323.2 534.89 1318.13 539.3 1315.23 542.56C1312.33 545.83 1308.43 551.65 1306.56 555.5C1304.69 559.35 1302.45 565.31 1301.58 568.75C1300.69 572.26 1300.01 579.05 1300.02 584.25C1300.03 589.42 1300.73 596.15 1301.62 599.5C1302.48 602.8 1304.53 608.42 1306.16 612C1307.79 615.58 1310.79 620.52 1312.81 622.99C1314.84 625.46 1318.02 628.83 1319.87 630.49C1321.72 632.15 1325.55 634.97 1328.37 636.76C1331.19 638.56 1336.42 641.03 1340 642.26C1345.58 644.18 1348.56 644.5 1361 644.48C1373.28 644.46 1376.5 644.12 1382 642.25C1385.58 641.04 1391.2 638.31 1394.5 636.18C1397.8 634.05 1402.78 629.88 1405.57 626.9C1408.35 623.93 1411.82 619.48 1413.28 617C1414.73 614.52 1417.15 609.13 1418.65 605C1421.12 598.22 1421.38 596.21 1421.37 584C1421.37 572.33 1421.05 569.62 1419.01 564C1417.72 560.42 1415.08 554.8 1413.16 551.5C1411.23 548.2 1406.92 542.8 1403.56 539.5C1400.21 536.2 1394.78 532.07 1391.48 530.33C1388.19 528.58 1381.9 526.22 1377.5 525.07C1371.97 523.63 1366.72 523.02 1360.5 523.1C1355.55 523.17 1349.7 523.58 1347.5 524.02C1345.3 524.46 1341.03 525.75 1338 526.87ZM640.5 517.25C666.47 517.61 672.39 517.97 677 519.44C680.02 520.4 684.08 522.12 686 523.25C687.92 524.39 691 526.71 692.84 528.41C694.68 530.11 697.37 533.75 698.83 536.5C701.17 540.9 701.49 542.64 701.49 551C701.49 558.76 701.11 561.23 699.37 564.5C698.2 566.7 695.95 570.03 694.37 571.9C692.79 573.77 689.4 576.47 682.15 580.5L687.32 582.97C690.17 584.33 694.98 587.93 698 590.97C701.71 594.7 704.06 598.13 705.23 601.5C706.31 604.63 706.96 609.58 706.98 614.75C706.99 620.51 706.41 624.59 705.05 628.25C703.98 631.14 701.62 635.11 699.8 637.07C697.99 639.03 694.7 641.76 692.5 643.13C690.3 644.5 686.48 646.37 684 647.28C681.52 648.2 676.35 649.45 672.5 650.06C668.65 650.67 653.8 651.42 639.5 651.73C625.2 652.04 612.26 652 608 651L607.83 584.67C607.73 545.46 608.04 518.02 608.58 517.58C609.09 517.16 623.45 517.01 640.5 517.25ZM616 577C655.52 577 669.14 576.55 671.75 575.99C674.36 575.44 678.96 573.53 681.97 571.74C685.25 569.8 688.65 566.7 690.47 564C693.22 559.92 693.5 558.75 693.5 551.5C693.5 544.82 693.09 542.76 690.99 539C689.45 536.25 686.54 533.22 683.49 531.2C680.74 529.38 676.92 527.4 675 526.8C672.99 526.17 659.72 525.52 643.84 525.26L616.19 524.81L616 577ZM616 644C652.23 643.99 662.84 643.48 669.5 642.46C675 641.62 681.52 640.02 684 638.91C686.48 637.8 690.01 635.46 691.86 633.7C693.71 631.94 696.07 628.59 697.11 626.25C698.42 623.31 699 619.69 699 614.5C699 608.63 698.46 605.8 696.5 601.5C695.07 598.36 692.6 594.97 690.75 593.61C688.96 592.3 685.7 590.32 683.5 589.22C681.3 588.11 676.8 586.7 673.5 586.1C670.1 585.47 656.33 584.99 641.75 584.99L616 585L616 644ZM779.5 517.5L779.75 584.25C780 650.27 779.98 651.01 778 651.5C776.9 651.77 775.1 651.55 774 651C772.03 650.02 772 648.92 771.83 584.17C771.74 547.36 772.05 518.02 772.54 517.62C773.03 517.23 774.79 517.04 779.5 517.5ZM1085.5 517.5L1085.5 524.5L1036 525L1036.04 587.25C1036.08 642.21 1035.91 649.65 1034.54 650.75C1033.7 651.44 1031.88 651.77 1028 651L1028 525L1003 525C978.83 525 977.98 524.93 977.5 523C977.23 521.9 977.25 520.1 977.56 518.99C978.12 517.01 978.79 516.99 1085.5 517.5ZM1139.17 516.83L1170.84 517.21C1201.08 517.57 1202.79 517.69 1209 519.94C1212.58 521.24 1217.75 523.72 1220.5 525.47C1223.25 527.21 1226.81 530.18 1228.41 532.07C1230.01 533.96 1232.48 537.98 1233.89 541C1236.08 545.68 1236.47 547.91 1236.48 556C1236.5 563.06 1235.99 566.9 1234.5 570.93C1233.36 574.02 1230.51 578.55 1227.89 581.43C1225.35 584.22 1220.85 587.82 1217.89 589.44C1214.93 591.05 1209.35 593.21 1205.5 594.23C1201.65 595.25 1198.39 596.29 1198.25 596.54C1198.11 596.79 1205.09 604.78 1213.75 614.3C1222.41 623.81 1232.88 635.33 1237 639.9C1241.13 644.47 1244.5 648.68 1244.5 649.25C1244.5 649.82 1243.73 650.78 1242.79 651.39C1241.61 652.16 1240.31 652.19 1238.61 651.5C1237.25 650.95 1225.08 638.24 1187 596L1147 596L1147 622.5C1147 645.29 1146.78 649.21 1145.43 650.5C1144.56 651.33 1143.44 652 1142.93 652C1142.42 652 1141.33 651.77 1140.5 651.5C1139.19 651.06 1139.01 642.71 1139.09 583.92L1139.17 516.83ZM1147 588C1194.53 588.02 1200.54 587.71 1205 586.4C1208.03 585.51 1212.3 583.73 1214.5 582.45C1216.7 581.16 1219.7 578.85 1221.16 577.31C1222.62 575.76 1224.87 572.48 1226.16 570C1228.11 566.25 1228.5 564 1228.49 556.5C1228.48 548.38 1228.19 546.97 1225.49 542.12C1223.85 539.16 1220.92 535.51 1219 534C1217.08 532.5 1213.7 530.35 1211.5 529.23C1209.3 528.12 1204.8 526.7 1201.5 526.1C1198.16 525.48 1184.74 524.99 1171.25 524.99L1147 525L1147 588Z"/>
</svg>
